<?xml version="1.0" encoding="UTF-8"?>
<svg id="Capa_1" xmlns="http://www.w3.org/2000/svg" version="1.1" viewBox="0 0 580.6 301.2">
  <!-- Generator: Adobe Illustrator 29.8.5, SVG Export Plug-In . SVG Version: 2.1.1 Build 2)  -->
  <defs>
    <style>
      .st0 {
        fill: #fbbe00;
      }

      .st1 {
        fill: #095a22;
      }

      .st2 {
        fill: #04a438;
      }

      .st3 {
        fill: #fff;
      }

      .st4 {
        fill: #1a632d;
      }
    </style>
  </defs>
  <path class="st3" d="M84.9,138.1c-21.6,0-37.7,14-37.7,36.2s16,36.8,37.7,36.8,37.8-14.9,37.8-36.8-16-36.2-37.8-36.2ZM84.9,195.8c-11.6,0-19.8-9-19.8-21.5s8-21.1,19.8-21.1,19.9,9,19.9,21.1-8.2,21.5-19.9,21.5Z"/>
  <path class="st3" d="M177.6,160.9c0-15.9-13.2-20.9-26.5-20.9h-26.4v69.3h16.4v-27.5h5.7l15,27.5h19.6l-18.1-29.6c8.9-2.7,14.4-9.4,14.4-18.7ZM148.9,169.6h-7.9v-16.1h8.9c5,0,11.2,1.3,11.2,7.7s-6.8,8.4-12.1,8.4Z"/>
  <path class="st3" d="M242.4,168.3h-28.6v13.5h13.2v12.6c-2.9,1.3-6.6,1.9-10.5,1.9-13.6,0-21.1-9.1-21.1-21.8s8.6-21.6,20.4-21.6,12.3,2.7,15.6,6.5l10.6-12c-5.8-5.6-15.9-9.2-26.7-9.2-21.1,0-37.6,14.2-37.6,36.4s15.9,36.5,38.1,36.5,10.7-.7,15.3-1.8l11.4-27.1v-13.7Z"/>
  <polygon class="st3" points="348.2 185.1 347.9 185.1 320.1 139.9 301 139.9 301 183.5 311.7 209.2 317.3 209.2 316.9 163.9 317.2 163.9 345 209.2 364 209.2 364 139.9 347.8 139.9 348.2 185.1"/>
  <path class="st3" d="M279.9,139.9h-16.2l-17.7,42.1-11.4,27.1h0c0,0,18.2,0,18.2,0l5.1-13.6h26.8l5.4,13.6h18.6l-10.7-25.7-18.1-43.5ZM262.7,182.2l8.8-23.8,8.6,23.8h-17.4Z"/>
  <rect class="st3" x="369.2" y="139.9" width="16.8" height="69.3"/>
  <path class="st3" d="M425.1,195.7c-11.5,0-19.7-8.6-19.7-21.2s8.3-21.2,20-21.2,10.9,2.1,14,6.4l11.3-11.4c-5.8-6.6-16.2-10.2-25.9-10.2-21.1,0-37.6,14.2-37.6,36.4s15.9,36.6,37.3,36.6,20.8-4.4,26.9-11.4l-11.6-11c-2.9,4.1-8.1,7-14.7,7Z"/>
  <path class="st3" d="M484.4,138.1c-21.6,0-37.7,14-37.7,36.2s16,36.8,37.7,36.8,37.8-14.9,37.8-36.8-16-36.2-37.8-36.2ZM484.4,195.8c-11.6,0-19.8-9-19.8-21.5s8-21.1,19.8-21.1,19.9,9,19.9,21.1-8.2,21.5-19.9,21.5Z"/>
  <path class="st3" d="M239,137.2c10.4,0,20.5-2.3,28.4-6.4l2-1v-38.2h-36s0,16.5,0,16.5h13.2v6.3c-2,.5-4.3.8-6.8.8-10.9,0-17.4-6.8-17.4-18.1s7-17.9,16.6-17.9,9.9,1.9,12.8,5.2l2.8,3.2,15.7-17.8-2.5-2.5c-6.6-6.4-17.6-10.2-29.3-10.2-23,0-40,15.7-41.2,37.6l13.9,33.6c7.2,5.8,16.7,9.2,27.7,9.2Z"/>
  <path class="st3" d="M157.4,121.8h21.7l5.4,13.6h26.7l-3.1-7.4-13.9-33.6-14.8-35.7h-21.2l-32.2,76.7h26.4l5.1-13.6ZM168.4,84.1l6.2,15.7h-12.6l6.4-15.7Z"/>
  <path class="st3" d="M296.7,108.3l14.7,27h28.4l-19.3-31.6c8-4,12.6-11.4,12.6-20.5,0-15.4-11.3-24.6-30.2-24.6h-30.1v76.7h23.9v-27ZM296.6,79.6h5.2c7.4,0,7.4,2.8,7.4,4s0,4.7-8.4,4.7h-4.2v-8.7Z"/>
  <g>
    <path class="st3" d="M90.1,232.3c0,.6-.3,1.4-.8,2.2-.4.8-.9,1.3-1.5,1.6-.5.3-.8.3-.8,0s.2-.2.5-.5c1-.9,1.4-1.6,1.4-2.2,0-1.2-1.2-1.9-3.7-1.9s-2.4.2-4.1.6-3.4,1-5,1.9c-1.9,1-2.8,1.9-2.8,2.7s.6,1.2,1.7,1.7c.6.3,1.8.8,3.6,1.5,1.8.7,3.3,1.3,4.4,1.8,1.1.5,2.2,1.2,3.2,2.2,1,.9,1.5,2,1.5,3.1s-.7,2.4-2,3.7c-2,1.9-4.7,3.6-7.9,4.9-3.3,1.3-6.1,1.9-8.4,1.9-4.6,0-6.9-1.3-6.9-3.9s1.4-4.8,4.2-6.6c2.3-1.6,4.8-2.4,7.3-2.4s.9.1.8.3c0,.2-.5.3-1.3.3-.8,0-1.9.3-3.1.8-1.3.5-2.5,1.3-3.6,2.3-1.5,1.3-2.2,2.6-2.2,3.9s.4,1.5,1.2,2.2,2.3,1,4.5,1,4.4-.3,6.5-1c4.7-1.5,7.6-3.2,8.7-5.1.5-.7.7-1.2.7-1.7,0-1.3-.8-2.4-2.4-3.1-1.9-.9-4.5-1.9-7.9-3-1.3-.4-2.4-1-3.3-1.7-.9-.7-1.4-1.6-1.4-2.6s.5-2,1.6-3c1.1-1,2.4-1.8,4-2.3,3.3-1.3,6.1-1.9,8.4-1.9s4.8.8,4.8,2.4Z"/>
    <path class="st3" d="M99.6,242.6c1.6,0,2.4.8,2.4,2.3s-.2,1.4-.7,1.9c-.7,1.1-1.9,2-3.5,2.8-1.6.8-3,1.2-4.1,1.3-.4,0-.6,0-.7-.3,0-.1,0-.2.1-.2,0,0,.2,0,.2,0,.7,0,1.5-.4,2.6-1,1.9-1,3.4-2.1,4.3-3.2.4-.5.6-1,.6-1.5s-.2-.7-.7-.7-.9.2-1.5.5c-1.4.6-2.8,1.8-4.3,3.3-1.5,1.6-2.5,3.1-3,4.6-.1.5-.2.9-.2,1.4s.2.9.6,1.3c.4.4,1,.6,1.8.6s1.9-.2,3-.7c3.3-1.3,5.8-3.4,7.6-6.1.2-.2.3-.3.5-.1.1,0,.2.1.2.2s0,.2-.1.3c-.9,1.5-2,2.7-3.3,3.9-2.6,2.2-5.1,3.3-7.5,3.3s-3.6-.6-4.4-1.9c-.3-.5-.5-1.1-.5-1.8s.2-1.5.6-2.5c.7-1.7,2.3-3.4,4.7-5.1,2.4-1.7,4.3-2.6,5.7-2.6Z"/>
    <path class="st3" d="M109.1,244c0,.2-.2.6-.5,1.3-.3.7-1.2,3-2.8,7,1.1-1.3,2.4-2.8,4-4.5,3.2-3.4,5.5-5.1,6.7-5.1s.5,0,.8.2c.2.1.4.5.4,1s-.2,1.1-.5,1.7c-.3.6-.7,1.4-1.1,2.3-.4.9-.7,1.5-.8,1.7,2.4-2.2,4.3-3.6,5.5-4s2.1-.7,2.5-.7.6.1.6.4-.2.6-.7,1.3c-.4.7-.9,1.7-1.4,3s-.8,2.2-.9,2.7,0,1,0,1.4.1.7.3,1c.4.5,1,.5,1.8,0s1.8-1.2,3.2-2.4c1.4-1.2,2.4-2.4,3.2-3.6.1-.1.3-.2.4-.1.2,0,.2.1.2.2s0,.2,0,.2c-.4.8-1.2,1.8-2.4,3-1.9,2-3.4,3.2-4.7,3.7-1.4.5-2.4.5-3,.2s-1-.7-1.1-1.2c-.1-.4-.2-.9-.2-1.3,0-1.4.3-2.7.8-4.1s1-2.3,1.3-2.8c-1.1.5-2,1-2.8,1.7-1.2,1-2.2,2-2.9,2.7l-.9,1c-.3.6-.7,1-1.4,1.1s-1-.1-.9-.7c0-.6.6-1.8,1.6-3.7,1-1.9,1.5-3,1.5-3.2s-.1-.3-.3-.3c-.5,0-1.5.6-2.8,1.8-.9.8-2.2,2.4-4,4.8-1.8,2.3-2.8,3.6-3,3.7-1,.5-1.7.8-2,.8s-.4,0-.4-.1,0-.2.1-.4,1-2.7,2.7-7.6c-.6,1-1.2,1.7-1.7,2.3-.2.3-.3.2-.3-.2s.1-.7.3-.9c1.3-1.7,2.3-3.2,2.9-4.4.2-1,.5-1.6,1.1-1.8.3-.1.7-.1,1.1,0,.4.1.6.3.6.6Z"/>
    <path class="st3" d="M141.1,243.5c.5,0,1.2.3,1.9.8.7.5,1.1,1.1,1.2,1.6,0,.2,0,.4,0,.6,0,1.3-.6,2.7-1.9,4.2-1.3,1.5-2.7,2.8-4.3,3.8-2.5,1.7-4.9,2.5-7.4,2.5s-1.8-.1-2.4-.4c-.5-.2.1-.3,1.7-.3s4.1-1,6.9-3.1c2.7-1.9,4.4-4.2,5-6.9,0-.4,0-.8,0-1.2-.1-.4-.4-.6-.8-.6-1.3,0-3,.9-5.1,2.7-.9.8-1.8,1.8-2.8,3.1-.9,1.3-1.4,2.3-1.4,3.1s0,.2,0,.4,0,.3-.2.6c-.4.8-.9.7-1.6-.1-.2-.4-.3-.9-.3-1.4,0-1.3.2-2.7.6-4.2-.1.1-.4.5-.8,1.1s-.9,1.2-1.4,1.8c-.3.3-.5.3-.6,0,0,0,0-.1,0-.2s0-.2.2-.4c2.3-2.8,3.6-4.7,4-5.5.5-1.5,1.3-3.4,2.4-5.7,1.1-2.3,2.1-4.2,3-5.6,1.9-2.9,3.8-4.4,5.8-4.4s.7,0,1.1.1l.9.3c.8.5,1.3,1.1,1.3,1.9s-.2,1.6-.7,2.5c-.8,1.5-2.4,3.5-4.9,5.8-2.5,2.3-4.9,4.3-7.3,6-.6,1-1,2.4-1.4,4.1,1.1-1.6,2.5-3.1,4.2-4.6,1.7-1.5,3.4-2.2,5-2.2ZM139.7,239.6c3.5-3.5,5.2-6.1,5.2-7.8s-.3-1-.8-1-1,.3-1.7.8c-3,2.3-5.9,6.6-8.7,13,2-1.3,4-3,6-4.9Z"/>
    <path class="st3" d="M151.7,256.4c-1.5,0-2.2-.9-2.2-2.7s1.3-4,3.8-6.6c.2-.2.3-.4.4-.5l.3-.4c.4-.6.6-.9.6-1v-.4c-.2-.3-.7-.6-1.6-.8-.8-.2-1.5-.2-2-.2-2.6,3.7-4.1,5.8-4.5,6.3s-.7.7-.8.7-.2-.2-.2-.3,0-.3.3-.5c1.6-1.9,2.9-4,4.1-6.2-.3,0-.6-.2-.8-.4-.2-.2-.2-.5,0-1,.1-.4.6-1.1,1.3-1.8.7-.8,1.4-1.3,1.9-1.5.6-.3.9-.4,1-.5.1,0,.3,0,.5,0,.3,0,.2.5-.3,1.6l-1.7,2.7c1.3,0,2.4.1,3.4.1h1.5c.5,0,.9,0,1.1.2.2.1.3.4.2.7-.2.6-.7,1.3-1.5,2.2-1.7,2-3.1,4.2-3.9,6.5-.2.6-.3,1-.3,1.4,0,.8.3,1.3.9,1.3s.6-.2,1.2-.5,1.5-1.1,2.9-2.3c1.3-1.2,2.4-2.4,3.2-3.6.1-.1.3-.2.4-.1.2,0,.2.1.2.2s0,.2,0,.2c-.4.8-1.2,1.8-2.4,3-1.1,1.2-2.2,2.2-3.3,3-1,.8-2.2,1.2-3.4,1.2Z"/>
    <path class="st3" d="M161.8,255.8c-.5,0-1-.1-1.5-.4s-1-.7-1.4-1.2-.6-1.1-.6-1.6.1-1.1.4-1.7c.6-1.2,1.5-2.4,2.8-3.6,1.3-1.1,2.6-2.1,4-2.9s2.5-1.3,3.3-1.5c.8-.2,1.6-.3,2.4-.3s1.4.2,2,.6c.6.4.8.8.8,1.2s0,.2,0,.3c0,0-.1,0-.2,0-.3-.6-1.1-.8-2.2-.8s-2.3.4-3.7,1.1c-1.4.7-2.7,1.6-3.9,2.7-1,1-1.9,2-2.7,3.3-.8,1.2-1.2,2.1-1.2,2.6,0,1.1.3,1.6.9,1.6s1.5-.5,2.8-1.5c2.1-1.7,3.5-3,4.2-3.8,2.7-2.9,4.1-4.3,4.3-4.3.3,0,.8.1,1.3.3.5.2.7.5.5.7-1.5,2.1-2.4,4.2-2.6,6.3,0,.3,0,.6,0,1s.1.7.3,1c.4.5,1,.5,1.8,0,.8-.4,1.8-1.2,3.2-2.4,1.4-1.2,2.4-2.4,3.2-3.6.1-.1.3-.2.4-.1.1,0,.2.1.2.2,0,.4-.7,1.4-2.1,2.9-1.4,1.5-2.4,2.5-3.2,3-1.4,1-2.6,1.5-3.8,1.5s-1.8-.6-2.2-1.7c0-.3-.1-.7-.1-1.2,0-1.3.3-2.7.8-4.1-.1,0-.7.6-1.6,1.7-1,1.1-2.1,2.2-3.3,3.2-1.3,1-2.4,1.5-3.4,1.5Z"/>
    <path class="st3" d="M191.8,242.9c.7,0,1,.4,1,1.1s-.3,1.7-1,2.9c-.7,1.3-1.2,2.3-1.5,3.1-.6,1.3-.8,2.4-.8,3.2s.1,1.3.3,1.6c.4.5,1,.5,1.8,0,.8-.4,1.8-1.2,3.2-2.4,1.4-1.2,2.4-2.4,3.2-3.6.1-.1.3-.2.4-.1.2,0,.2.1.2.2s0,.2,0,.2c-.4.8-1.2,1.8-2.4,3-1.1,1.2-2.2,2.2-3.3,2.9-1.1.7-2.1,1.1-3.1,1.1-1,0-1.7-.3-2.1-.7s-.6-1-.6-1.6,0-1.3.2-1.9c.1-.6.3-1.3.7-2.1.5-1.3,1-2.2,1.4-2.9s.6-1.2.6-1.4-.1-.3-.3-.3c-.5,0-1.4.6-2.7,1.7-.9.8-2.2,2.4-4,4.8-1.8,2.3-2.8,3.6-3,3.7-1,.5-1.7.8-2,.8s-.4,0-.4-.1,0-.2,0-.4.3-1,.9-2.4,1.1-3,1.7-4.7c.6-1.7,1-2.7,1.1-3.1s.2-.6.3-.9,0-.5.2-.6c0-.2.2-.4.3-.6.2-.2.4-.3.6-.4.3,0,.6,0,1,0,.4,0,.6.3.6.5s-.2.6-.5,1.3c-.3.7-1.2,3-2.8,7,1-1.3,2.4-2.8,4-4.4,1.6-1.7,2.9-2.9,4.1-3.8,1.1-.8,2-1.2,2.7-1.2Z"/>
    <path class="st3" d="M199.4,247.3c1.3-1.1,2.6-2.1,4-2.9s2.5-1.3,3.3-1.5c.8-.2,1.6-.3,2.4-.3s1.5.3,2.2.8c4-9.2,7.8-13.9,11.4-13.9s2,.3,2.5,1c.2.3.3.7.3.9,0,.7-.3,1.7-.9,2.8s-1.6,2.3-2.9,3.7c-1.3,1.3-3.2,3-5.6,5-2.4,2-3.8,3.1-4.1,3.3-.9,2.2-1.7,4.2-2.2,6.2-.5,2-.8,3.5-.8,4.5s.2,1.8.5,2.4c.2.4.4.6.8.7.3,0,.6,0,.9-.1.2-.2.4-.3.6-.4.1-.1.3-.2.5-.3.2-.1.3-.1.4,0,0,0,0,.2,0,.5-.2.3-.5.5-.7.7-.5.3-1,.5-1.6.5s-1,0-1.2,0c-1.4-.2-2.1-1.3-2.1-3.1s.2-3.4.7-4.8c.6-2,1.2-3.7,1.7-5.1-4.7,5.4-8,8.1-9.9,8.1s-1-.1-1.5-.4-1-.7-1.4-1.2-.6-1.1-.6-1.6.1-1.1.4-1.7c.6-1.2,1.5-2.4,2.8-3.6ZM211,244c-.3-.2-1-.3-1.8-.3s-2,.4-3.4,1.1c-1.4.7-2.7,1.6-3.9,2.7-1,1-1.9,2-2.7,3.3-.8,1.2-1.2,2.1-1.2,2.6,0,1.1.3,1.6.9,1.6s1.5-.5,2.8-1.5c3.2-2.6,6.1-5.3,8.6-8l.6-1.5ZM223.8,233.1c.4-.7.6-1.3.6-1.8s-.2-.7-.6-.7-1,.3-1.7.8c-3.2,2.4-6.1,6.5-8.7,12.3,1.9-1.2,3.9-2.9,5.9-4.9,2.1-2,3.6-3.9,4.5-5.7Z"/>
    <path class="st3" d="M222.8,250.5c.5-1.1.8-1.9.8-2.5s0-1-.2-1.4c-.1-.3,0-.6.2-.9.2-.2.6-.3.9-.3.6.1.9.8.9,2s-.7,2.7-2,4.6c0,.8.4,1.2,1.2,1.2s2-.8,3.6-2.5c.8-.9,1.2-1.4,1.4-1.7.2-.3.4-.4.5-.3.1,0,.2.1.2.2,0,.3-.5,1-1.6,2.3-1.7,2-3.1,3.1-4.4,3.1s-1.4-.4-1.8-1.1c-.6.6-1.2,1.2-1.7,1.7-1.1,1-2.4,1.4-3.8,1.4s-1.4-.2-2-.6c-1-.6-1.5-1.7-1.5-3.3s.6-3.5,1.7-5.2c.7-1,1.5-2,2.4-2.7,1.4-1.3,2.8-1.9,4.1-1.9s.6,0,.9.1c.9.3,1.3.8,1.3,1.7s-.2,1-.5,1c-.1,0-.2-.3-.2-.7s-.3-.8-.9-.8c-1,0-2.3.9-3.9,2.8-1.6,1.9-2.6,3.7-2.9,5.6,0,.3,0,.7,0,1.1s.1.8.4,1.4.8.8,1.5.8,1.5-.3,2.3-1,1.6-1.5,2.3-2.4v-.3c-.2-.5-.2-.8,0-1.1s.5-.4.9-.3Z"/>
    <path class="st3" d="M241,245.6c0-1.4-.4-2.1-1.2-2.1s-.4,0-.5,0-.3,0-.3-.1,0-.3.3-.4c.2-.1.8-.3,1.8-.3,1.2,0,2,.2,2.3.5.3.4.5.7.5,1s-.3,1.2-.8,2.6c-.5,1.4-.8,2.1-.9,2.2-.9,2.6-1.3,4.3-1.2,4.9,2.6-3.5,4.3-5.7,5.2-6.6,1.7-1.9,2.9-3.2,3.7-3.9,1.7-1.6,3.2-2.6,4.5-3.2.4-.1.7-.2,1-.2,1,0,1.6.3,2,.9.1.1.2.3.2.4s0,.3-.1.5-.2.2-.5,0c-.2-.2-.8-.3-1.6-.3-1.3,0-3.6,1.6-6.7,4.7-1.9,1.9-3.6,4-5.2,6.1-1.6,2.1-2.4,3.6-2.6,4.5,0,.2-.2.3-.7.3s-.8-.2-1-.5c-.2-.4-.3-.7-.3-.9s0-.5,0-.7.3-1.3.9-3.2c.6-1.9.9-3.2,1-3.9-.3.6-.8,1.3-1.4,2.1-.2.2-.4.3-.5.2s-.2-.2-.2-.3,0-.2,0-.3c1.2-1.7,2-3,2.4-4.1Z"/>
    <path class="st3" d="M256.6,243.2c.7,0,1.2.2,1.3.7,0,.3,0,.5-.1.8s-.2.4-.3.6c0,.1-.1.3-.1.3-.1.3-.3.6-.4.8-1.7,3.3-2.5,5.4-2.6,6.3,0,.3,0,.6,0,1s.1.7.3,1c.4.5,1,.5,1.8,0,.8-.4,1.8-1.2,3.2-2.4,1.4-1.2,2.4-2.4,3.3-3.6.1-.1.3-.2.4-.1.1,0,.2.1.2.2s0,.2,0,.2c-.4.8-1.2,1.8-2.4,3-1.9,2-3.4,3.2-4.7,3.7-.7.3-1.3.4-1.8.4-1.2,0-1.9-.6-2.3-1.7,0-.2,0-.4,0-.7,0-1,.5-2.6,1.4-4.6-.1.3-.7,1-1.7,2.2-.3.3-.5.3-.6,0,0,0,0-.1,0-.2s0-.2.2-.4c1.4-1.8,2.5-3.3,3.4-4.5,0-.1,0-.3,0-.6.6-1.6,1.1-2.5,1.5-2.6h.3ZM260.1,237.4l-.3,1.4c0,.3-.2.7-.6,1.3-.4.6-.7.9-.9.9-1.3,0-1.9-.3-1.9-.9s.6-.7,1.9-1.6l.7-.6c.5-.4.8-.6.9-.6s.2,0,.2.2Z"/>
    <path class="st3" d="M264.2,247.3c1.3-1.1,2.6-2.1,4-2.9s2.5-1.3,3.3-1.5c.8-.2,1.6-.3,2.4-.3s1.5.3,2.2.8c4-9.2,7.8-13.9,11.4-13.9s2,.3,2.5,1c.2.3.3.7.3.9,0,.7-.3,1.7-.9,2.8s-1.6,2.3-2.9,3.7c-1.3,1.3-3.2,3-5.6,5-2.4,2-3.8,3.1-4.1,3.3-.9,2.2-1.7,4.2-2.2,6.2-.5,2-.8,3.5-.8,4.5s.2,1.8.5,2.4c.2.4.4.6.8.7.3,0,.6,0,.9-.1.2-.2.4-.3.6-.4.1-.1.3-.2.5-.3.2-.1.3-.1.4,0,0,0,0,.2,0,.5-.2.3-.5.5-.7.7-.5.3-1,.5-1.6.5s-1,0-1.2,0c-1.4-.2-2.1-1.3-2.1-3.1s.2-3.4.7-4.8c.6-2,1.2-3.7,1.7-5.1-4.7,5.4-8,8.1-9.9,8.1s-1-.1-1.5-.4-1-.7-1.4-1.2-.6-1.1-.6-1.6.1-1.1.4-1.7c.6-1.2,1.5-2.4,2.8-3.6ZM275.9,244c-.3-.2-1-.3-1.8-.3s-2,.4-3.4,1.1c-1.4.7-2.7,1.6-3.9,2.7-1,1-1.9,2-2.7,3.3-.8,1.2-1.2,2.1-1.2,2.6,0,1.1.3,1.6.9,1.6s1.5-.5,2.8-1.5c3.2-2.6,6.1-5.3,8.6-8l.6-1.5ZM288.7,233.1c.4-.7.6-1.3.6-1.8s-.2-.7-.6-.7-1,.3-1.7.8c-3.2,2.4-6.1,6.5-8.7,12.3,1.9-1.2,3.9-2.9,5.9-4.9,2.1-2,3.6-3.9,4.5-5.7Z"/>
    <path class="st3" d="M280.8,255.8c-.5,0-1-.1-1.5-.4s-1-.7-1.4-1.2-.6-1.1-.6-1.6.1-1.1.4-1.7c.6-1.2,1.5-2.4,2.8-3.6,1.3-1.1,2.6-2.1,4-2.9s2.5-1.3,3.3-1.5c.8-.2,1.6-.3,2.4-.3s1.4.2,2,.6c.6.4.8.8.8,1.2s0,.2,0,.3c0,0-.1,0-.2,0-.3-.6-1.1-.8-2.2-.8s-2.3.4-3.7,1.1c-1.4.7-2.7,1.6-3.9,2.7-1,1-1.9,2-2.7,3.3-.8,1.2-1.2,2.1-1.2,2.6,0,1.1.3,1.6.9,1.6s1.5-.5,2.8-1.5c2.1-1.7,3.5-3,4.2-3.8,2.7-2.9,4.1-4.3,4.3-4.3.3,0,.8.1,1.3.3.5.2.7.5.5.7-1.5,2.1-2.4,4.2-2.6,6.3,0,.3,0,.6,0,1s.1.7.3,1c.4.5,1,.5,1.8,0,.8-.4,1.8-1.2,3.2-2.4,1.4-1.2,2.4-2.4,3.2-3.6.1-.1.3-.2.4-.1.1,0,.2.1.2.2,0,.4-.7,1.4-2.1,2.9-1.4,1.5-2.4,2.5-3.2,3-1.4,1-2.6,1.5-3.8,1.5s-1.8-.6-2.2-1.7c0-.3-.1-.7-.1-1.2,0-1.3.3-2.7.8-4.1-.1,0-.7.6-1.6,1.7-1,1.1-2.1,2.2-3.3,3.2-1.3,1-2.4,1.5-3.4,1.5Z"/>
    <path class="st3" d="M318.2,242.6c1.6,0,2.4.8,2.4,2.3s-.2,1.4-.7,1.9c-.7,1.1-1.9,2-3.5,2.8-1.6.8-3,1.2-4.1,1.3-.4,0-.6,0-.7-.3,0-.1,0-.2.1-.2,0,0,.2,0,.2,0,.7,0,1.5-.4,2.6-1,1.9-1,3.4-2.1,4.3-3.2.4-.5.6-1,.6-1.5s-.2-.7-.7-.7-.9.2-1.5.5c-1.4.6-2.8,1.8-4.3,3.3-1.5,1.6-2.5,3.1-3,4.6-.1.5-.2.9-.2,1.4s.2.9.6,1.3c.4.4,1,.6,1.8.6s1.9-.2,3-.7c3.3-1.3,5.8-3.4,7.6-6.1.2-.2.3-.3.5-.1.1,0,.2.1.2.2s0,.2-.1.3c-.9,1.5-2,2.7-3.3,3.9-2.6,2.2-5.1,3.3-7.5,3.3s-3.6-.6-4.4-1.9c-.3-.5-.5-1.1-.5-1.8s.2-1.5.6-2.5c.7-1.7,2.3-3.4,4.7-5.1,2.4-1.7,4.3-2.6,5.7-2.6Z"/>
    <path class="st3" d="M334.3,242.9c.7,0,1,.4,1,1.1s-.3,1.7-1,2.9c-.7,1.3-1.2,2.3-1.5,3.1-.6,1.3-.8,2.4-.8,3.2s.1,1.3.3,1.6c.4.5,1,.5,1.8,0,.8-.4,1.8-1.2,3.2-2.4,1.4-1.2,2.4-2.4,3.2-3.6.1-.1.3-.2.4-.1.2,0,.2.1.2.2s0,.2,0,.2c-.4.8-1.2,1.8-2.4,3-1.1,1.2-2.2,2.2-3.3,2.9-1.1.7-2.1,1.1-3.1,1.1-1,0-1.7-.3-2.1-.7s-.6-1-.6-1.6,0-1.3.2-1.9c.1-.6.3-1.3.7-2.1.5-1.3,1-2.2,1.4-2.9s.6-1.2.6-1.4-.1-.3-.3-.3c-.5,0-1.4.6-2.7,1.7-.9.8-2.2,2.4-4,4.8-1.8,2.3-2.8,3.6-3,3.7-1,.5-1.7.8-2,.8s-.4,0-.4-.1,0-.2,0-.4.3-1,.9-2.4,1.1-3,1.7-4.7c.6-1.7,1-2.7,1.1-3.1s.2-.6.3-.9,0-.5.2-.6c0-.2.2-.4.3-.6.2-.2.4-.3.6-.4.3,0,.6,0,1,0,.4,0,.6.3.6.5s-.2.6-.5,1.3c-.3.7-1.2,3-2.8,7,1-1.3,2.4-2.8,4-4.4,1.6-1.7,2.9-2.9,4.1-3.8,1.1-.8,2-1.2,2.7-1.2Z"/>
    <path class="st3" d="M356.5,243.1c2.2-.2,3.6-.3,4.1-.3s.7,0,.7.2-.3.4-1,.5c-.7.2-2.3.4-5,.7-.1.3-.3.6-.5.9-.4.7-.7,1.1-.7,1.3-1.7,3.3-2.5,5.4-2.6,6.3,0,.3,0,.6,0,1s.1.7.3,1c.4.5,1,.5,1.8,0,.8-.4,1.8-1.2,3.2-2.4,1.4-1.2,2.4-2.4,3.3-3.6.1-.1.3-.2.4,0,.4.2-.3,1.4-2.3,3.4-1.9,2-3.4,3.2-4.7,3.7-.7.3-1.3.4-1.8.4-1.2,0-1.9-.6-2.3-1.7,0-.2,0-.4,0-.7,0-1,.5-2.6,1.4-4.6-.1.3-.7,1-1.7,2.2-.3.3-.5.3-.6,0,0,0,0-.1,0-.2s0-.2.2-.4c1.4-1.8,2.5-3.3,3.4-4.5,0,0,.3-.6,1-1.8-.3,0-.6,0-.9,0s-.5,0-.7-.3c-.1-.2-.2-.4,0-.7.2-.5,1-.7,2.3-.8,0,0,0,0,.2,0l2.2-4.1c.1-.2.2-.5.4-.7.1-.2.3-.4.3-.6s.2-.3.2-.4c0-.1.2-.2.2-.3,0,0,.1-.1.2-.2.1-.2.5-.3,1-.3s1,.2,1.2.5c0,.1.1.3.1.6s-.1.6-.3.9c-.2.3-.4.6-.7.7-.2.1-.4.3-.5.5l-2.1,3.7h.6Z"/>
    <path class="st3" d="M377.5,252.2c-1.1,1.2-2.2,2.2-3.1,2.8-1.2.8-2.4,1.3-3.8,1.3s-.6-.1-1-.4c-.4-.2-.7-.6-.9-1.1s-.2-.9-.2-1.4c0-1.5.3-3,.9-4.5,0,0-.5.7-1.2,1.9s-1.6,2.3-2.6,3.3c-1,1-2.1,1.6-3.1,1.6s-1.1-.1-1.7-.4c-1.2-.5-1.7-1.5-1.7-2.9s.6-3.5,1.8-5.3,1.9-2.8,2.3-2.9c.4-.1.9-.2,1.2-.2s.8,0,1.2.2c.4.2.3.4-.2.8-2,1.8-3.4,3.9-4.3,6.1-.3.9-.5,1.6-.5,2.2s.2,1,.5,1.2.6.3.9.3c.7,0,1.7-.5,2.9-1.5,1.2-1,2.9-3,5-6.1.3-.4.8-1.3,1.5-2.6.7-1.3,1.2-2,1.3-2.2.5,0,1,.1,1.6.3.6.2.8.5.6.9-1.4,2.3-2.4,4-2.9,5.1-.6,1.1-1,2.4-1.2,3.9,0,.3,0,.6,0,1s.1.7.3,1c.4.5,1,.5,1.8,0,.8-.4,1.8-1.2,3.2-2.4,1.3-1.2,2.4-2.4,3.2-3.6.1-.1.3-.2.4-.1.2,0,.2.1.2.2s0,.2,0,.2c-.4.8-1.2,1.8-2.4,3Z"/>
    <path class="st3" d="M379.2,255.7c-.4.4-.5.8-.2,1s.5.4.7.4.6,0,.9-.1c1.3-.4,2.5-1.1,3.6-2.2s1.8-2.3,1.8-3.4-.7-1.3-2.1-2.1c-.7-.3-1-.6-1.1-.6-.8-.5-1.3-1-1.5-1.6-.4.7-1.1,1.7-2,3-.2.2-.4.3-.6.2s-.2-.3,0-.5c1.2-1.6,2-3,2.4-4.1.2-1.6,1.4-3,3.5-4.3,2.1-1.3,4.1-1.9,5.8-1.9s1.9.2,2.3.6c.4.4.7.8.7,1.2s-.1.8-.3,1.3c-.2.5-.7,1-1.3,1.4-.2.1-.3,0-.4,0,0-.2,0-.4.4-.7.3-.3.5-.7.6-1.2s-.1-.8-.7-1h-.3c-1.1,0-2.6.4-4.3,1.3-1.7.8-3,1.9-4,3.3-.4.5-.6,1-.6,1.5s.3,1,1,1.4c.3.2.8.4,1.5.8s1.2.7,1.5.8.6.4,1,.8.6.7.7,1c.1.9-.3,1.8-1.2,2.9-1.4,1.5-3.4,2.6-6.1,3.2-.6.1-1.2.2-1.9.2s-1.1-.2-1.3-.7c0-.1-.1-.3-.1-.5s.2-.6.7-1.2c.4-.4,1.1-.9,2.1-1.3,0,0,.2,0,.2,0,0,0,0,.1,0,.2,0,0-.2.2-.5.3-.3.1-.6.4-.9.8Z"/>
    <path class="st3" d="M412.2,245.7l.2-.9c0-.6-.2-.9-.7-.9-1.2,0-2.8.9-4.9,2.8s-3.4,3.7-3.9,5.6c-.1.5-.2.9-.2,1.3s0,.7.3,1c.3.5.9.8,1.6.8s1.5-.1,2.4-.3c1.9-.5,3.4-1.3,4.6-2.2,1.2-1,2.5-2.3,3.9-4.1.1-.1.3-.2.4-.1.2,0,.2.1.2.2s0,.3-.1.5c-1.4,1.9-2.9,3.4-4.4,4.6-1.5,1.2-3.3,1.9-5.3,2.3-.6,0-1.1.1-1.6.1-1.4,0-2.5-.3-3.3-1s-1.1-1.5-1.1-2.3.2-1.8.6-2.8c.7-1.7,2.3-3.4,4.7-5.1,2.4-1.7,4.3-2.6,5.7-2.6s.7,0,1,.1c.8.3,1.2.8,1.2,1.4s-.2.9-.5,1.5c-.3.6-.6.7-.7.6-.2-.2-.2-.3-.2-.5Z"/>
    <path class="st3" d="M433.1,252.2c-1.1,1.2-2.2,2.2-3.1,2.8-1.2.8-2.4,1.3-3.8,1.3s-.6-.1-1-.4c-.4-.2-.7-.6-.9-1.1s-.2-.9-.2-1.4c0-1.5.3-3,.9-4.5,0,0-.5.7-1.2,1.9s-1.6,2.3-2.6,3.3c-1,1-2.1,1.6-3.1,1.6s-1.1-.1-1.7-.4c-1.2-.5-1.7-1.5-1.7-2.9s.6-3.5,1.8-5.3,1.9-2.8,2.3-2.9c.4-.1.9-.2,1.2-.2s.8,0,1.2.2c.4.2.3.4-.2.8-2,1.8-3.4,3.9-4.3,6.1-.3.9-.5,1.6-.5,2.2s.2,1,.5,1.2.6.3.9.3c.7,0,1.7-.5,2.9-1.5,1.2-1,2.9-3,5-6.1.3-.4.8-1.3,1.5-2.6.7-1.3,1.2-2,1.3-2.2.5,0,1,.1,1.6.3.6.2.8.5.6.9-1.4,2.3-2.4,4-2.9,5.1-.6,1.1-1,2.4-1.2,3.9,0,.3,0,.6,0,1s.1.7.3,1c.4.5,1,.5,1.8,0,.8-.4,1.8-1.2,3.2-2.4,1.3-1.2,2.4-2.4,3.2-3.6.1-.1.3-.2.4-.1.2,0,.2.1.2.2s0,.2,0,.2c-.4.8-1.2,1.8-2.4,3Z"/>
    <path class="st3" d="M436.5,249.7c-.3,1-.5,1.7-.6,2,0,.3,0,.8,0,1.4s.1,1.1.4,1.5c.5.8,1.3.8,2.5.2.9-.5,2-1.3,3.3-2.6,1.3-1.2,2.4-2.4,3.1-3.4,0,0,.1-.1.3-.1.3,0,.3.2.2.6-.4.8-1.2,1.8-2.4,3-1.2,1.2-2.2,2.2-3.2,2.9s-1.9,1.1-2.9,1.1c-2.2,0-3.3-1.1-3.3-3.2v-.3c.1-2,1.2-5.1,3.1-9.2,2-4.1,3.7-7.2,5.3-9.3l1.4-1.7c.3-.4.8-.8,1.4-1.4,1.2-1.1,2.4-1.7,3.6-1.7s2.1.4,2.5,1.1c.1.3.2.6.2,1.1s-.2,1.2-.7,2.1c-3,5.2-7.7,10.5-14.2,15.9ZM449.6,233.1c.3-.6.5-1.1.5-1.5,0-.6-.3-.9-.7-.9s-.9.2-1.5.7c-2.3,1.8-4.6,4.7-6.8,8.6-1.7,3.1-3,5.8-3.8,8.1,2-1.4,4.3-3.6,6.7-6.7,2.5-3.1,4.4-5.8,5.6-8.2Z"/>
    <path class="st3" d="M451.6,243.1c2.2-.2,3.6-.3,4.1-.3s.7,0,.7.2-.3.4-1,.5c-.7.2-2.3.4-5,.7-.1.3-.3.6-.5.9-.4.7-.7,1.1-.7,1.3-1.7,3.3-2.5,5.4-2.6,6.3,0,.3,0,.6,0,1s.1.7.3,1c.4.5,1,.5,1.8,0,.8-.4,1.8-1.2,3.2-2.4,1.4-1.2,2.4-2.4,3.3-3.6.1-.1.3-.2.4,0,.4.2-.3,1.4-2.3,3.4-1.9,2-3.4,3.2-4.7,3.7-.7.3-1.3.4-1.8.4-1.2,0-1.9-.6-2.3-1.7,0-.2,0-.4,0-.7,0-1,.5-2.6,1.4-4.6-.1.3-.7,1-1.7,2.2-.3.3-.5.3-.6,0,0,0,0-.1,0-.2s0-.2.2-.4c1.4-1.8,2.5-3.3,3.4-4.5,0,0,.3-.6,1-1.8-.3,0-.6,0-.9,0s-.5,0-.7-.3c-.1-.2-.2-.4,0-.7.2-.5,1-.7,2.3-.8,0,0,0,0,.2,0l2.2-4.1c.1-.2.2-.5.4-.7.1-.2.3-.4.3-.6s.2-.3.2-.4c0-.1.2-.2.2-.3,0,0,.1-.1.2-.2.1-.2.5-.3,1-.3s1,.2,1.2.5c0,.1.1.3.1.6s-.1.6-.3.9c-.2.3-.4.6-.7.7-.2.1-.4.3-.5.5l-2.1,3.7h.6Z"/>
    <path class="st3" d="M458.7,243.2c.7,0,1.2.2,1.3.7,0,.3,0,.5-.1.8s-.2.4-.3.6c0,.1-.1.3-.1.3-.1.3-.3.6-.4.8-1.7,3.3-2.5,5.4-2.6,6.3,0,.3,0,.6,0,1s.1.7.3,1c.4.5,1,.5,1.8,0,.8-.4,1.8-1.2,3.2-2.4,1.4-1.2,2.4-2.4,3.3-3.6.1-.1.3-.2.4-.1.1,0,.2.1.2.2s0,.2,0,.2c-.4.8-1.2,1.8-2.4,3-1.9,2-3.4,3.2-4.7,3.7-.7.3-1.3.4-1.8.4-1.2,0-1.9-.6-2.3-1.7,0-.2,0-.4,0-.7,0-1,.5-2.6,1.4-4.6-.1.3-.7,1-1.7,2.2-.3.3-.5.3-.6,0,0,0,0-.1,0-.2s0-.2.2-.4c1.4-1.8,2.5-3.3,3.4-4.5,0-.1,0-.3,0-.6.6-1.6,1.1-2.5,1.5-2.6h.3ZM462.2,237.4l-.3,1.4c0,.3-.2.7-.6,1.3-.4.6-.7.9-.9.9-1.3,0-1.9-.3-1.9-.9s.6-.7,1.9-1.6l.7-.6c.5-.4.8-.6.9-.6s.2,0,.2.2Z"/>
    <path class="st3" d="M466.7,245.6c0-1.4-.4-2.1-1.2-2.1s-.4,0-.5,0-.3,0-.3-.1,0-.3.3-.4c.2-.1.8-.3,1.8-.3,1.2,0,2,.2,2.3.5.3.4.5.7.5,1s-.3,1.2-.8,2.6c-.5,1.4-.8,2.1-.9,2.2-.9,2.6-1.3,4.3-1.2,4.9,2.6-3.5,4.3-5.7,5.2-6.6,1.7-1.9,2.9-3.2,3.7-3.9,1.7-1.6,3.2-2.6,4.5-3.2.4-.1.7-.2,1-.2,1,0,1.6.3,2,.9.1.1.2.3.2.4s0,.3-.1.5-.2.2-.5,0c-.2-.2-.8-.3-1.6-.3-1.3,0-3.6,1.6-6.7,4.7-1.9,1.9-3.6,4-5.2,6.1-1.6,2.1-2.4,3.6-2.6,4.5,0,.2-.2.3-.7.3s-.8-.2-1-.5c-.2-.4-.3-.7-.3-.9s0-.5,0-.7.3-1.3.9-3.2c.6-1.9.9-3.2,1-3.9-.3.6-.8,1.3-1.4,2.1-.2.2-.4.3-.5.2s-.2-.2-.2-.3,0-.2,0-.3c1.2-1.7,2-3,2.4-4.1Z"/>
    <path class="st3" d="M487.2,250.5c.5-1.1.8-1.9.8-2.5s0-1-.2-1.4c-.1-.3,0-.6.2-.9.2-.2.6-.3.9-.3.6.1.9.8.9,2s-.7,2.7-2,4.6c0,.8.4,1.2,1.2,1.2s2-.8,3.6-2.5c.8-.9,1.2-1.4,1.4-1.7.2-.3.4-.4.5-.3.1,0,.2.1.2.2,0,.3-.5,1-1.6,2.3-1.7,2-3.1,3.1-4.4,3.1s-1.4-.4-1.8-1.1c-.6.6-1.2,1.2-1.7,1.7-1.1,1-2.4,1.4-3.8,1.4s-1.4-.2-2-.6c-1-.6-1.5-1.7-1.5-3.3s.6-3.5,1.7-5.2c.7-1,1.5-2,2.4-2.7,1.4-1.3,2.8-1.9,4.1-1.9s.6,0,.9.1c.9.3,1.3.8,1.3,1.7s-.2,1-.5,1c-.1,0-.2-.3-.2-.7s-.3-.8-.9-.8c-1,0-2.3.9-3.9,2.8-1.6,1.9-2.6,3.7-2.9,5.6,0,.3,0,.7,0,1.1s.1.8.4,1.4.8.8,1.5.8,1.5-.3,2.3-1,1.6-1.5,2.3-2.4v-.3c-.2-.5-.2-.8,0-1.1s.5-.4.9-.3Z"/>
    <path class="st3" d="M493.9,255.7c-.4.4-.5.8-.2,1s.5.4.7.4.6,0,.9-.1c1.3-.4,2.5-1.1,3.6-2.2s1.8-2.3,1.8-3.4-.7-1.3-2.1-2.1c-.7-.3-1-.6-1.1-.6-.8-.5-1.3-1-1.5-1.6-.4.7-1.1,1.7-2,3-.2.2-.4.3-.6.2s-.2-.3,0-.5c1.2-1.6,2-3,2.4-4.1.2-1.6,1.4-3,3.5-4.3,2.1-1.3,4.1-1.9,5.8-1.9s1.9.2,2.3.6c.4.4.7.8.7,1.2s-.1.8-.3,1.3c-.2.5-.7,1-1.3,1.4-.2.1-.3,0-.4,0,0-.2,0-.4.4-.7.3-.3.5-.7.6-1.2s-.1-.8-.7-1h-.3c-1.1,0-2.6.4-4.3,1.3-1.7.8-3,1.9-4,3.3-.4.5-.6,1-.6,1.5s.3,1,1,1.4c.3.2.8.4,1.5.8s1.2.7,1.5.8.6.4,1,.8.6.7.7,1c.1.9-.3,1.8-1.2,2.9-1.4,1.5-3.4,2.6-6.1,3.2-.6.1-1.2.2-1.9.2s-1.1-.2-1.3-.7c0-.1-.1-.3-.1-.5s.2-.6.7-1.2c.4-.4,1.1-.9,2.1-1.3,0,0,.2,0,.2,0,0,0,0,.1,0,.2,0,0-.2.2-.5.3-.3.1-.6.4-.9.8Z"/>
  </g>
  <path class="st3" d="M369.4,57s0,0,0,0c-.1-.1-.3-.2-.4-.3.1.1.3.2.4.3Z"/>
  <path class="st0" d="M437,94.4c0-27.4-22.2-49.7-49.7-49.7s-49.7,22.2-49.7,49.7,8.3,31.4,20.9,40.4h57.6c12.6-9,20.9-23.7,20.9-40.4Z"/>
  <path class="st1" d="M418.5,55.9c.5.4,1,.7,1.5,1.1,2.7-4.2,6.1-8.4,10.4-12.5-4.7,3.2-8.6,7.3-11.8,11.4Z"/>
  <path class="st4" d="M436.6,87.5c0,0-.1,0-.2,0-.4,0-.7,0-1.1,0-5.3.3-12.2,5.6-18.9,8.6-8.2,3.7-21,.7-21,.7,2-.9,10-2.8,11.6-3.5,8.6-3.8,7.8-11.6,3.8-11.6-5.4,0-8.6,1.4-19.3,2.9-8.1,1.1-17.8.7-22.4,2.5-4.8,1.8-18.6,21.2-25.5,31.1,2.9,5.3,6.7,10,11.3,13.9l.6.3s22.9-20.2,27.8-20.2c11.2,0,11.6-.2,22-.7,4.4-.2,5.3-.4,7.8-1.3,9-3,18.5-9.5,23.8-13.8,0,0,.1,0,.2-.1,2.5-2.1,4.1-3.6,4.2-4.1.5-2.9-2.1-4.3-4.6-4.6Z"/>
  <path class="st2" d="M444.8,32.8c-.1-.1-.3-.2-.5-.2-4.7.3-16.3,1.8-23.1,8.6-.2.2-2.7,2.5-5.1,6.2-1.1,1.8-1.9,3.6-2.6,5.4-1.2,3.3-1.7,6.6-1.2,9.7,0,.3.3.5.5.6.3,0,.6,0,.7-.3,1.4-2.2,3-4.5,4.9-6.9,3.2-4.1,7.2-8.2,11.8-11.4-4.3,4.1-7.6,8.3-10.4,12.5-1.7,2.5-3.1,5.1-4.3,7.6,0,.2,0,.4,0,.6.1.2.3.3.5.3.5,0,1,0,1.5,0,3,0,5.9-1.2,8.4-2.6,1.5-.8,2.9-1.8,4-2.6,3.5-2.7,6.9-6.4,9.1-9.7,3.2-5,5.2-11.1,5.7-17.3,0-.2,0-.4-.2-.5Z"/>
  <path class="st2" d="M406.5,35.8c-4.3-4.3-11.7-5.3-14.6-5.5-.1,0-.2,0-.3.1,0,0-.1.2-.1.3.3,3.9,1.6,7.8,3.6,11,1.3,2.1,3.5,4.3,5.7,6.1,0,0,0,0,0,0,2,1.5,4.9,3.3,7.9,3.3s.6,0,.9,0c.1,0,.3,0,.3-.2,0,0,0,0,0,0,0-.1,0-.2,0-.3-1.9-4.1-4.9-8.5-9.3-12.7,4.7,3.1,8.2,7.8,10.6,11.6,0,.2.3.2.5.2.2,0,.3-.2.3-.4.5-3.1-.3-6.4-2.4-9.6-1.5-2.3-3.1-3.8-3.2-3.9Z"/>
  <path class="st4" d="M403,52.1c-2.4-2.4-5.4-4.1-8.5-5.3-5.3-2.1-10.7-2.7-13.5-2.9-.2,0-.4,0-.5.2s-.2.3-.2.5c0,.7.2,1.4.3,2.1.7,5.2,2.4,10.2,5.1,14.4,2.1,3.2,5.3,6.6,8.7,9.2,3,2.3,7.4,5,11.9,5s1,0,1.4,0c.2,0,.4-.1.5-.3,0-.2.1-.4,0-.6-2.8-6.2-7.4-12.8-13.9-19.1,7,4.7,12.4,11.7,15.9,17.4.1.2.4.3.7.3.3,0,.5-.3.5-.5.7-4.6-.5-9.6-3.6-14.4-2.2-3.5-4.6-5.7-4.8-5.9Z"/>
</svg>